# xmcd
#
# Track frame offsets: 
#        150
#        29444
#        50586
#        67017
#        79444
#        93077
#        115965
#        133280
#        148431
#        164990
#        179299
#        192782
#        206935
#        222260
#        238186
#        251238
#        264442
#        280322
#        303946
#
# Disc length: 4352 seconds
#
# Revision: 0
# Processed by: cddbd v1.5.2PL0 Copyright (c) Steve Scherf et al.
# Submitted via: ExactAudioCopyFreeDBPlugin 1.0
#
DISCID=3a10fe13
DTITLE=Various Artist - BLUES HARP DIGGERS KING OF ROCK
DYEAR=2008
DGENRE=Blues
TTITLE0=Don’t Trust No Woman
TTITLE1=Kiddeo
TTITLE2=I Wish You Would
TTITLE3=Down In The Bottom
TTITLE4=Spoonful
TTITLE5=Put A Chain On It
TTITLE6=Lollipop Mama
TTITLE7=Please Don’t Leave Me
TTITLE8=Full Moon Over Dallas
TTITLE9=Ya, Ya
TTITLE10=Honest I Do
TTITLE11=Born In Chicago
TTITLE12=Crazy Little Woman
TTITLE13=Company Man
TTITLE14=Hands Off
TTITLE15=If You Please
TTITLE16=The Road
TTITLE17=My Home Is A Prison
TTITLE18=Low Down Dog
EXTD=
EXTT0=
EXTT1=
EXTT2=
EXTT3=
EXTT4=
EXTT5=
EXTT6=
EXTT7=
EXTT8=
EXTT9=
EXTT10=
EXTT11=
EXTT12=
EXTT13=
EXTT14=
EXTT15=
EXTT16=
EXTT17=
EXTT18=
PLAYORDER=
